<mxfile host="app.diagrams.net" modified="2024-02-28T08:43:57.390Z" agent="Mozilla/5.0 (X11; Linux x86_64; rv:120.0) Gecko/20100101 Firefox/120.0" etag="b-EY1ps9vncfjhiNB44E" version="23.1.7" type="device" pages="2">
  <diagram id="9iLuuHjTfgJz7XWUWArW" name="(MVC)">
    <mxGraphModel dx="1434" dy="752" grid="1" gridSize="10" guides="1" tooltips="1" connect="1" arrows="1" fold="1" page="0" pageScale="1" pageWidth="827" pageHeight="1169" math="0" shadow="0">
      <root>
        <mxCell id="0" />
        <mxCell id="1" parent="0" />
        <mxCell id="gdXrfbrDABmZQeG7sYQ2-30" value="" style="endArrow=none;html=1;rounded=0;fontSize=12;fontColor=#000000;strokeWidth=2;strokeColor=#000000;" parent="1" edge="1">
          <mxGeometry width="50" height="50" relative="1" as="geometry">
            <mxPoint x="400" y="330" as="sourcePoint" />
            <mxPoint x="400" y="300" as="targetPoint" />
          </mxGeometry>
        </mxCell>
        <mxCell id="gdXrfbrDABmZQeG7sYQ2-5" value="" style="rounded=0;whiteSpace=wrap;html=1;fillColor=#7EA6E0;strokeColor=#004C99;" parent="1" vertex="1">
          <mxGeometry x="100" y="310" width="50" height="35" as="geometry" />
        </mxCell>
        <mxCell id="gdXrfbrDABmZQeG7sYQ2-7" value="" style="rounded=0;whiteSpace=wrap;html=1;fillColor=#7EA6E0;strokeColor=#004C99;" parent="1" vertex="1">
          <mxGeometry x="40" y="392.5" width="60" height="35" as="geometry" />
        </mxCell>
        <mxCell id="gdXrfbrDABmZQeG7sYQ2-8" value="" style="rounded=0;whiteSpace=wrap;html=1;fillColor=#7EA6E0;strokeColor=#004C99;" parent="1" vertex="1">
          <mxGeometry x="140" y="392.5" width="60" height="35" as="geometry" />
        </mxCell>
        <mxCell id="gdXrfbrDABmZQeG7sYQ2-15" style="edgeStyle=orthogonalEdgeStyle;rounded=0;orthogonalLoop=1;jettySize=auto;html=1;exitX=0.5;exitY=1;exitDx=0;exitDy=0;entryX=0.5;entryY=0;entryDx=0;entryDy=0;endArrow=none;endFill=0;" parent="1" source="gdXrfbrDABmZQeG7sYQ2-9" target="gdXrfbrDABmZQeG7sYQ2-8" edge="1">
          <mxGeometry relative="1" as="geometry" />
        </mxCell>
        <mxCell id="gdXrfbrDABmZQeG7sYQ2-47" style="edgeStyle=orthogonalEdgeStyle;rounded=0;orthogonalLoop=1;jettySize=auto;html=1;exitX=0;exitY=0.5;exitDx=0;exitDy=0;entryX=0.5;entryY=1;entryDx=0;entryDy=0;fontSize=9;fontColor=#000000;endArrow=none;endFill=0;strokeWidth=1;" parent="1" source="gdXrfbrDABmZQeG7sYQ2-9" target="gdXrfbrDABmZQeG7sYQ2-5" edge="1">
          <mxGeometry relative="1" as="geometry" />
        </mxCell>
        <mxCell id="gdXrfbrDABmZQeG7sYQ2-9" value="" style="rhombus;whiteSpace=wrap;html=1;fillColor=#dae8fc;strokeColor=#6c8ebf;" parent="1" vertex="1">
          <mxGeometry x="160" y="362.5" width="20" height="20" as="geometry" />
        </mxCell>
        <mxCell id="gdXrfbrDABmZQeG7sYQ2-17" style="edgeStyle=orthogonalEdgeStyle;rounded=0;orthogonalLoop=1;jettySize=auto;html=1;exitX=0.5;exitY=1;exitDx=0;exitDy=0;entryX=0.5;entryY=0;entryDx=0;entryDy=0;endArrow=none;endFill=0;" parent="1" source="gdXrfbrDABmZQeG7sYQ2-10" target="gdXrfbrDABmZQeG7sYQ2-7" edge="1">
          <mxGeometry relative="1" as="geometry" />
        </mxCell>
        <mxCell id="gdXrfbrDABmZQeG7sYQ2-46" style="edgeStyle=orthogonalEdgeStyle;rounded=0;orthogonalLoop=1;jettySize=auto;html=1;entryX=0.5;entryY=1;entryDx=0;entryDy=0;fontSize=9;fontColor=#000000;endArrow=none;endFill=0;strokeWidth=1;" parent="1" source="gdXrfbrDABmZQeG7sYQ2-10" target="gdXrfbrDABmZQeG7sYQ2-5" edge="1">
          <mxGeometry relative="1" as="geometry" />
        </mxCell>
        <mxCell id="gdXrfbrDABmZQeG7sYQ2-10" value="" style="rhombus;whiteSpace=wrap;html=1;fillColor=#dae8fc;strokeColor=#6c8ebf;" parent="1" vertex="1">
          <mxGeometry x="60" y="362.5" width="20" height="20" as="geometry" />
        </mxCell>
        <mxCell id="gdXrfbrDABmZQeG7sYQ2-18" value="&lt;div style=&quot;font-size: 20px&quot;&gt;&lt;font style=&quot;font-size: 20px&quot;&gt;&lt;b&gt;Datenmodell&lt;/b&gt;&lt;/font&gt;&lt;/div&gt;" style="text;html=1;align=left;verticalAlign=middle;resizable=0;points=[];autosize=1;strokeColor=none;fillColor=none;" parent="1" vertex="1">
          <mxGeometry x="40" y="270" width="140" height="20" as="geometry" />
        </mxCell>
        <mxCell id="gdXrfbrDABmZQeG7sYQ2-20" value="" style="endArrow=none;dashed=1;html=1;rounded=0;fontSize=12;" parent="1" edge="1">
          <mxGeometry width="50" height="50" relative="1" as="geometry">
            <mxPoint x="240" y="440" as="sourcePoint" />
            <mxPoint x="240" y="300" as="targetPoint" />
          </mxGeometry>
        </mxCell>
        <mxCell id="gdXrfbrDABmZQeG7sYQ2-27" value="Entity" style="html=1;fontSize=12;strokeColor=#b85450;fillColor=#CC0000;fontColor=#FFFFFF;fontStyle=1" parent="1" vertex="1">
          <mxGeometry x="265" y="310" width="95" height="25" as="geometry" />
        </mxCell>
        <mxCell id="gdXrfbrDABmZQeG7sYQ2-28" value="" style="endArrow=classic;startArrow=classic;html=1;rounded=0;fontSize=12;fontColor=#FFFFFF;strokeWidth=2;" parent="1" edge="1">
          <mxGeometry width="50" height="50" relative="1" as="geometry">
            <mxPoint x="260" y="362.5" as="sourcePoint" />
            <mxPoint x="220" y="362" as="targetPoint" />
          </mxGeometry>
        </mxCell>
        <mxCell id="gdXrfbrDABmZQeG7sYQ2-29" value="O/R-Mapping" style="text;html=1;align=right;verticalAlign=middle;resizable=0;points=[];autosize=1;strokeColor=none;fillColor=none;fontSize=9;fontColor=#000000;" parent="1" vertex="1">
          <mxGeometry x="170" y="370" width="70" height="20" as="geometry" />
        </mxCell>
        <mxCell id="gdXrfbrDABmZQeG7sYQ2-31" value="&lt;div&gt;Serviceschicht&lt;span style=&quot;font-weight: normal ; font-size: 18px&quot;&gt;&lt;br&gt;&lt;/span&gt;&lt;/div&gt;" style="text;html=1;align=left;verticalAlign=middle;resizable=0;points=[];autosize=1;strokeColor=none;fillColor=none;fontStyle=1;fontSize=20;" parent="1" vertex="1">
          <mxGeometry x="440" y="260" width="160" height="30" as="geometry" />
        </mxCell>
        <mxCell id="gdXrfbrDABmZQeG7sYQ2-40" value="Service" style="html=1;fontSize=12;strokeColor=#d79b00;fillColor=#FFD966;fontStyle=1" parent="1" vertex="1">
          <mxGeometry x="440" y="310" width="95" height="40" as="geometry" />
        </mxCell>
        <mxCell id="gdXrfbrDABmZQeG7sYQ2-41" value="Service" style="html=1;fontSize=12;strokeColor=#d79b00;fillColor=#FFD966;fontStyle=1" parent="1" vertex="1">
          <mxGeometry x="440" y="375" width="95" height="40" as="geometry" />
        </mxCell>
        <mxCell id="gdXrfbrDABmZQeG7sYQ2-42" value="Service" style="html=1;fontSize=12;strokeColor=#d79b00;fillColor=#FFD966;fontStyle=1" parent="1" vertex="1">
          <mxGeometry x="560" y="310" width="95" height="40" as="geometry" />
        </mxCell>
        <mxCell id="gdXrfbrDABmZQeG7sYQ2-43" value="Service" style="html=1;fontSize=12;strokeColor=#d79b00;fillColor=#FFD966;fontStyle=1" parent="1" vertex="1">
          <mxGeometry x="560" y="375" width="95" height="40" as="geometry" />
        </mxCell>
        <mxCell id="gdXrfbrDABmZQeG7sYQ2-45" value="BenutzeroberflÃ¤che" style="text;html=1;align=left;verticalAlign=middle;resizable=0;points=[];autosize=1;strokeColor=none;fillColor=none;fontStyle=1;fontSize=20;" parent="1" vertex="1">
          <mxGeometry x="740" y="260" width="200" height="30" as="geometry" />
        </mxCell>
        <mxCell id="gdXrfbrDABmZQeG7sYQ2-50" value="UI" style="html=1;fontSize=12;strokeColor=#000000;fillColor=#004C99;fontStyle=1;fontColor=#FFFFFF;" parent="1" vertex="1">
          <mxGeometry x="740" y="310" width="95" height="40" as="geometry" />
        </mxCell>
        <mxCell id="gdXrfbrDABmZQeG7sYQ2-51" value="UI" style="html=1;fontSize=12;strokeColor=#000000;fillColor=#004C99;fontStyle=1;fontColor=#FFFFFF;" parent="1" vertex="1">
          <mxGeometry x="740" y="375" width="95" height="40" as="geometry" />
        </mxCell>
        <mxCell id="gdXrfbrDABmZQeG7sYQ2-52" value="UI" style="html=1;fontSize=12;strokeColor=#000000;fillColor=#004C99;fontStyle=1;fontColor=#FFFFFF;" parent="1" vertex="1">
          <mxGeometry x="860" y="310" width="95" height="40" as="geometry" />
        </mxCell>
        <mxCell id="gdXrfbrDABmZQeG7sYQ2-53" value="UI" style="html=1;fontSize=12;strokeColor=#000000;fillColor=#004C99;fontStyle=1;fontColor=#FFFFFF;" parent="1" vertex="1">
          <mxGeometry x="860" y="375" width="95" height="40" as="geometry" />
        </mxCell>
        <mxCell id="gdXrfbrDABmZQeG7sYQ2-54" value="" style="endArrow=classic;html=1;rounded=0;fontSize=9;fontColor=#FFFFFF;strokeWidth=1;" parent="1" edge="1">
          <mxGeometry width="50" height="50" relative="1" as="geometry">
            <mxPoint x="430" y="340" as="sourcePoint" />
            <mxPoint x="370" y="340" as="targetPoint" />
          </mxGeometry>
        </mxCell>
        <mxCell id="gdXrfbrDABmZQeG7sYQ2-55" value="" style="endArrow=classic;html=1;rounded=0;fontSize=9;fontColor=#FFFFFF;strokeWidth=1;" parent="1" edge="1">
          <mxGeometry width="50" height="50" relative="1" as="geometry">
            <mxPoint x="730" y="339.9999999999999" as="sourcePoint" />
            <mxPoint x="670" y="339.9999999999999" as="targetPoint" />
          </mxGeometry>
        </mxCell>
        <mxCell id="gdXrfbrDABmZQeG7sYQ2-56" value="" style="endArrow=classic;html=1;rounded=0;fontSize=9;fontColor=#FFFFFF;strokeWidth=1;dashed=1;" parent="1" edge="1">
          <mxGeometry width="50" height="50" relative="1" as="geometry">
            <mxPoint x="370" y="390" as="sourcePoint" />
            <mxPoint x="430" y="390" as="targetPoint" />
          </mxGeometry>
        </mxCell>
        <mxCell id="gdXrfbrDABmZQeG7sYQ2-57" value="" style="endArrow=classic;html=1;rounded=0;fontSize=9;fontColor=#FFFFFF;strokeWidth=1;dashed=1;" parent="1" edge="1">
          <mxGeometry width="50" height="50" relative="1" as="geometry">
            <mxPoint x="670" y="390" as="sourcePoint" />
            <mxPoint x="730" y="390" as="targetPoint" />
          </mxGeometry>
        </mxCell>
        <mxCell id="gdXrfbrDABmZQeG7sYQ2-58" value="&lt;div style=&quot;font-size: 8px;&quot; align=&quot;left&quot;&gt;Methodenaufrufe&lt;/div&gt;" style="text;html=1;align=left;verticalAlign=middle;resizable=0;points=[];autosize=1;strokeColor=none;fillColor=none;fontSize=8;fontColor=#000000;" parent="1" vertex="1">
          <mxGeometry x="370" y="340" width="80" height="20" as="geometry" />
        </mxCell>
        <mxCell id="gdXrfbrDABmZQeG7sYQ2-59" value="&lt;div style=&quot;font-size: 8px;&quot; align=&quot;left&quot;&gt;Methodenaufrufe&lt;/div&gt;" style="text;html=1;align=left;verticalAlign=middle;resizable=0;points=[];autosize=1;strokeColor=none;fillColor=none;fontSize=8;fontColor=#000000;" parent="1" vertex="1">
          <mxGeometry x="670" y="340" width="80" height="20" as="geometry" />
        </mxCell>
        <mxCell id="gdXrfbrDABmZQeG7sYQ2-60" value="Events / Updates" style="text;html=1;align=left;verticalAlign=middle;resizable=0;points=[];autosize=1;strokeColor=none;fillColor=none;fontSize=8;fontColor=#000000;" parent="1" vertex="1">
          <mxGeometry x="370" y="390" width="80" height="20" as="geometry" />
        </mxCell>
        <mxCell id="gdXrfbrDABmZQeG7sYQ2-61" value="Events / Updates" style="text;html=1;align=left;verticalAlign=middle;resizable=0;points=[];autosize=1;strokeColor=none;fillColor=none;fontSize=8;fontColor=#000000;" parent="1" vertex="1">
          <mxGeometry x="670" y="390" width="80" height="20" as="geometry" />
        </mxCell>
        <mxCell id="gdXrfbrDABmZQeG7sYQ2-62" value="Entity" style="html=1;fontSize=12;strokeColor=#b85450;fillColor=#CC0000;fontColor=#FFFFFF;fontStyle=1" parent="1" vertex="1">
          <mxGeometry x="265" y="350" width="95" height="25" as="geometry" />
        </mxCell>
        <mxCell id="gdXrfbrDABmZQeG7sYQ2-63" value="Entity" style="html=1;fontSize=12;strokeColor=#b85450;fillColor=#CC0000;fontColor=#FFFFFF;fontStyle=1" parent="1" vertex="1">
          <mxGeometry x="265" y="390" width="95" height="25" as="geometry" />
        </mxCell>
        <mxCell id="gdXrfbrDABmZQeG7sYQ2-64" value="" style="endArrow=none;html=1;rounded=0;fontSize=12;fontColor=#000000;strokeWidth=2;strokeColor=#000000;" parent="1" edge="1">
          <mxGeometry width="50" height="50" relative="1" as="geometry">
            <mxPoint x="400" y="439.9999999999999" as="sourcePoint" />
            <mxPoint x="400" y="410" as="targetPoint" />
          </mxGeometry>
        </mxCell>
        <mxCell id="gdXrfbrDABmZQeG7sYQ2-65" value="" style="endArrow=none;html=1;rounded=0;fontSize=12;fontColor=#000000;strokeWidth=2;strokeColor=#000000;" parent="1" edge="1">
          <mxGeometry width="50" height="50" relative="1" as="geometry">
            <mxPoint x="400" y="380" as="sourcePoint" />
            <mxPoint x="400" y="359.9999999999999" as="targetPoint" />
            <Array as="points">
              <mxPoint x="400" y="370" />
            </Array>
          </mxGeometry>
        </mxCell>
        <mxCell id="gdXrfbrDABmZQeG7sYQ2-66" value="" style="endArrow=none;html=1;rounded=0;fontSize=12;fontColor=#000000;strokeWidth=2;strokeColor=#000000;" parent="1" edge="1">
          <mxGeometry width="50" height="50" relative="1" as="geometry">
            <mxPoint x="700" y="330" as="sourcePoint" />
            <mxPoint x="700" y="300" as="targetPoint" />
          </mxGeometry>
        </mxCell>
        <mxCell id="gdXrfbrDABmZQeG7sYQ2-67" value="" style="endArrow=none;html=1;rounded=0;fontSize=12;fontColor=#000000;strokeWidth=2;strokeColor=#000000;" parent="1" edge="1">
          <mxGeometry width="50" height="50" relative="1" as="geometry">
            <mxPoint x="700" y="439.9999999999999" as="sourcePoint" />
            <mxPoint x="700" y="410" as="targetPoint" />
          </mxGeometry>
        </mxCell>
        <mxCell id="gdXrfbrDABmZQeG7sYQ2-68" value="" style="endArrow=none;html=1;rounded=0;fontSize=12;fontColor=#000000;strokeWidth=2;strokeColor=#000000;" parent="1" edge="1">
          <mxGeometry width="50" height="50" relative="1" as="geometry">
            <mxPoint x="700" y="380" as="sourcePoint" />
            <mxPoint x="700" y="359.9999999999999" as="targetPoint" />
            <Array as="points">
              <mxPoint x="700" y="370" />
            </Array>
          </mxGeometry>
        </mxCell>
        <mxCell id="gdXrfbrDABmZQeG7sYQ2-69" value="&lt;font style=&quot;font-size: 15px;&quot;&gt;Model&lt;/font&gt;" style="text;html=1;align=left;verticalAlign=middle;resizable=0;points=[];autosize=1;strokeColor=none;fillColor=none;fontSize=15;fontColor=#4C0099;fontStyle=1" parent="1" vertex="1">
          <mxGeometry x="40" y="465" width="60" height="20" as="geometry" />
        </mxCell>
        <mxCell id="gdXrfbrDABmZQeG7sYQ2-70" value="" style="shape=crossbar;whiteSpace=wrap;html=1;rounded=1;fontSize=9;strokeColor=#4C0099;fillColor=#e1d5e7;" parent="1" vertex="1">
          <mxGeometry x="40" y="450" width="660" height="20" as="geometry" />
        </mxCell>
        <mxCell id="gdXrfbrDABmZQeG7sYQ2-71" value="" style="shape=crossbar;whiteSpace=wrap;html=1;rounded=1;fontSize=9;strokeColor=#4C0099;fillColor=#e1d5e7;" parent="1" vertex="1">
          <mxGeometry x="700" y="450" width="150" height="20" as="geometry" />
        </mxCell>
        <mxCell id="gdXrfbrDABmZQeG7sYQ2-75" value="" style="shape=crossbar;whiteSpace=wrap;html=1;rounded=1;fontSize=9;strokeColor=#4C0099;fillColor=#e1d5e7;" parent="1" vertex="1">
          <mxGeometry x="850" y="450" width="110" height="20" as="geometry" />
        </mxCell>
        <mxCell id="gdXrfbrDABmZQeG7sYQ2-77" value="Controller" style="text;html=1;align=left;verticalAlign=middle;resizable=0;points=[];autosize=1;strokeColor=none;fillColor=none;fontSize=15;fontColor=#4C0099;fontStyle=1" parent="1" vertex="1">
          <mxGeometry x="700" y="465" width="90" height="20" as="geometry" />
        </mxCell>
        <mxCell id="gdXrfbrDABmZQeG7sYQ2-78" value="View" style="text;html=1;align=left;verticalAlign=middle;resizable=0;points=[];autosize=1;strokeColor=none;fillColor=none;fontSize=15;fontColor=#4C0099;fontStyle=1" parent="1" vertex="1">
          <mxGeometry x="850" y="465" width="50" height="20" as="geometry" />
        </mxCell>
      </root>
    </mxGraphModel>
  </diagram>
  <diagram name="(Client-Server)" id="nNxpwZIsupoA6TwWCmFg">
    <mxGraphModel dx="1434" dy="752" grid="1" gridSize="10" guides="1" tooltips="1" connect="1" arrows="1" fold="1" page="0" pageScale="1" pageWidth="827" pageHeight="1169" math="0" shadow="0">
      <root>
        <mxCell id="XkdyjrhcwRHgjYit6wpk-0" />
        <mxCell id="XkdyjrhcwRHgjYit6wpk-1" parent="XkdyjrhcwRHgjYit6wpk-0" />
        <mxCell id="XkdyjrhcwRHgjYit6wpk-2" value="" style="endArrow=none;html=1;rounded=0;fontSize=12;fontColor=#000000;strokeWidth=2;strokeColor=#000000;" edge="1" parent="XkdyjrhcwRHgjYit6wpk-1">
          <mxGeometry width="50" height="50" relative="1" as="geometry">
            <mxPoint x="400" y="330" as="sourcePoint" />
            <mxPoint x="400" y="300" as="targetPoint" />
          </mxGeometry>
        </mxCell>
        <mxCell id="XkdyjrhcwRHgjYit6wpk-3" value="" style="rounded=0;whiteSpace=wrap;html=1;fillColor=#7EA6E0;strokeColor=#004C99;" vertex="1" parent="XkdyjrhcwRHgjYit6wpk-1">
          <mxGeometry x="100" y="310" width="50" height="35" as="geometry" />
        </mxCell>
        <mxCell id="XkdyjrhcwRHgjYit6wpk-4" value="" style="rounded=0;whiteSpace=wrap;html=1;fillColor=#7EA6E0;strokeColor=#004C99;" vertex="1" parent="XkdyjrhcwRHgjYit6wpk-1">
          <mxGeometry x="40" y="392.5" width="60" height="35" as="geometry" />
        </mxCell>
        <mxCell id="XkdyjrhcwRHgjYit6wpk-5" value="" style="rounded=0;whiteSpace=wrap;html=1;fillColor=#7EA6E0;strokeColor=#004C99;" vertex="1" parent="XkdyjrhcwRHgjYit6wpk-1">
          <mxGeometry x="140" y="392.5" width="60" height="35" as="geometry" />
        </mxCell>
        <mxCell id="XkdyjrhcwRHgjYit6wpk-6" style="edgeStyle=orthogonalEdgeStyle;rounded=0;orthogonalLoop=1;jettySize=auto;html=1;exitX=0.5;exitY=1;exitDx=0;exitDy=0;entryX=0.5;entryY=0;entryDx=0;entryDy=0;endArrow=none;endFill=0;" edge="1" parent="XkdyjrhcwRHgjYit6wpk-1" source="XkdyjrhcwRHgjYit6wpk-8" target="XkdyjrhcwRHgjYit6wpk-5">
          <mxGeometry relative="1" as="geometry" />
        </mxCell>
        <mxCell id="XkdyjrhcwRHgjYit6wpk-7" style="edgeStyle=orthogonalEdgeStyle;rounded=0;orthogonalLoop=1;jettySize=auto;html=1;exitX=0;exitY=0.5;exitDx=0;exitDy=0;entryX=0.5;entryY=1;entryDx=0;entryDy=0;fontSize=9;fontColor=#000000;endArrow=none;endFill=0;strokeWidth=1;" edge="1" parent="XkdyjrhcwRHgjYit6wpk-1" source="XkdyjrhcwRHgjYit6wpk-8" target="XkdyjrhcwRHgjYit6wpk-3">
          <mxGeometry relative="1" as="geometry" />
        </mxCell>
        <mxCell id="XkdyjrhcwRHgjYit6wpk-8" value="" style="rhombus;whiteSpace=wrap;html=1;fillColor=#dae8fc;strokeColor=#6c8ebf;" vertex="1" parent="XkdyjrhcwRHgjYit6wpk-1">
          <mxGeometry x="160" y="362.5" width="20" height="20" as="geometry" />
        </mxCell>
        <mxCell id="XkdyjrhcwRHgjYit6wpk-9" style="edgeStyle=orthogonalEdgeStyle;rounded=0;orthogonalLoop=1;jettySize=auto;html=1;exitX=0.5;exitY=1;exitDx=0;exitDy=0;entryX=0.5;entryY=0;entryDx=0;entryDy=0;endArrow=none;endFill=0;" edge="1" parent="XkdyjrhcwRHgjYit6wpk-1" source="XkdyjrhcwRHgjYit6wpk-11" target="XkdyjrhcwRHgjYit6wpk-4">
          <mxGeometry relative="1" as="geometry" />
        </mxCell>
        <mxCell id="XkdyjrhcwRHgjYit6wpk-10" style="edgeStyle=orthogonalEdgeStyle;rounded=0;orthogonalLoop=1;jettySize=auto;html=1;entryX=0.5;entryY=1;entryDx=0;entryDy=0;fontSize=9;fontColor=#000000;endArrow=none;endFill=0;strokeWidth=1;" edge="1" parent="XkdyjrhcwRHgjYit6wpk-1" source="XkdyjrhcwRHgjYit6wpk-11" target="XkdyjrhcwRHgjYit6wpk-3">
          <mxGeometry relative="1" as="geometry" />
        </mxCell>
        <mxCell id="XkdyjrhcwRHgjYit6wpk-11" value="" style="rhombus;whiteSpace=wrap;html=1;fillColor=#dae8fc;strokeColor=#6c8ebf;" vertex="1" parent="XkdyjrhcwRHgjYit6wpk-1">
          <mxGeometry x="60" y="362.5" width="20" height="20" as="geometry" />
        </mxCell>
        <mxCell id="XkdyjrhcwRHgjYit6wpk-12" value="&lt;b&gt;&lt;font style=&quot;font-size: 20px;&quot;&gt;Server&lt;/font&gt;&lt;/b&gt;" style="text;html=1;align=left;verticalAlign=middle;resizable=0;points=[];autosize=1;strokeColor=none;fillColor=none;" vertex="1" parent="XkdyjrhcwRHgjYit6wpk-1">
          <mxGeometry x="40" y="260" width="90" height="40" as="geometry" />
        </mxCell>
        <mxCell id="XkdyjrhcwRHgjYit6wpk-13" value="" style="endArrow=none;dashed=1;html=1;rounded=0;fontSize=12;" edge="1" parent="XkdyjrhcwRHgjYit6wpk-1">
          <mxGeometry width="50" height="50" relative="1" as="geometry">
            <mxPoint x="240" y="440" as="sourcePoint" />
            <mxPoint x="240" y="300" as="targetPoint" />
          </mxGeometry>
        </mxCell>
        <mxCell id="XkdyjrhcwRHgjYit6wpk-14" value="Entity" style="html=1;fontSize=12;strokeColor=#b85450;fillColor=#CC0000;fontColor=#FFFFFF;fontStyle=1" vertex="1" parent="XkdyjrhcwRHgjYit6wpk-1">
          <mxGeometry x="265" y="310" width="95" height="25" as="geometry" />
        </mxCell>
        <mxCell id="XkdyjrhcwRHgjYit6wpk-15" value="" style="endArrow=classic;startArrow=classic;html=1;rounded=0;fontSize=12;fontColor=#FFFFFF;strokeWidth=2;" edge="1" parent="XkdyjrhcwRHgjYit6wpk-1">
          <mxGeometry width="50" height="50" relative="1" as="geometry">
            <mxPoint x="260" y="362.5" as="sourcePoint" />
            <mxPoint x="220" y="362" as="targetPoint" />
          </mxGeometry>
        </mxCell>
        <mxCell id="XkdyjrhcwRHgjYit6wpk-16" value="O/R-Mapping" style="text;html=1;align=right;verticalAlign=middle;resizable=0;points=[];autosize=1;strokeColor=none;fillColor=none;fontSize=9;fontColor=#000000;" vertex="1" parent="XkdyjrhcwRHgjYit6wpk-1">
          <mxGeometry x="170" y="370" width="70" height="20" as="geometry" />
        </mxCell>
        <mxCell id="XkdyjrhcwRHgjYit6wpk-18" value="Service" style="html=1;fontSize=12;strokeColor=#d79b00;fillColor=#FFD966;fontStyle=1" vertex="1" parent="XkdyjrhcwRHgjYit6wpk-1">
          <mxGeometry x="440" y="310" width="95" height="40" as="geometry" />
        </mxCell>
        <mxCell id="XkdyjrhcwRHgjYit6wpk-19" value="Service" style="html=1;fontSize=12;strokeColor=#d79b00;fillColor=#FFD966;fontStyle=1" vertex="1" parent="XkdyjrhcwRHgjYit6wpk-1">
          <mxGeometry x="440" y="375" width="95" height="40" as="geometry" />
        </mxCell>
        <mxCell id="XkdyjrhcwRHgjYit6wpk-22" value="Browser" style="text;html=1;align=left;verticalAlign=middle;resizable=0;points=[];autosize=1;strokeColor=none;fillColor=none;fontStyle=1;fontSize=20;" vertex="1" parent="XkdyjrhcwRHgjYit6wpk-1">
          <mxGeometry x="837.5" y="255" width="100" height="40" as="geometry" />
        </mxCell>
        <mxCell id="XkdyjrhcwRHgjYit6wpk-23" value="&lt;div&gt;HTTP-&lt;/div&gt;&lt;div&gt;Controller&lt;/div&gt;" style="html=1;fontSize=12;strokeColor=#000000;fillColor=#004C99;fontStyle=1;fontColor=#FFFFFF;" vertex="1" parent="XkdyjrhcwRHgjYit6wpk-1">
          <mxGeometry x="620" y="310" width="95" height="40" as="geometry" />
        </mxCell>
        <mxCell id="XkdyjrhcwRHgjYit6wpk-24" value="&lt;div&gt;HTTP-&lt;/div&gt;&lt;div&gt;Controller&lt;/div&gt;" style="html=1;fontSize=12;strokeColor=#000000;fillColor=#004C99;fontStyle=1;fontColor=#FFFFFF;" vertex="1" parent="XkdyjrhcwRHgjYit6wpk-1">
          <mxGeometry x="620" y="375" width="95" height="40" as="geometry" />
        </mxCell>
        <mxCell id="XkdyjrhcwRHgjYit6wpk-25" value="SPA" style="html=1;fontSize=12;strokeColor=#6c8ebf;fillColor=#dae8fc;fontStyle=1;" vertex="1" parent="XkdyjrhcwRHgjYit6wpk-1">
          <mxGeometry x="837.5" y="310" width="95" height="40" as="geometry" />
        </mxCell>
        <mxCell id="XkdyjrhcwRHgjYit6wpk-26" value="SPA" style="html=1;fontSize=12;strokeColor=#6c8ebf;fillColor=#dae8fc;fontStyle=1;" vertex="1" parent="XkdyjrhcwRHgjYit6wpk-1">
          <mxGeometry x="837.5" y="375" width="95" height="40" as="geometry" />
        </mxCell>
        <mxCell id="XkdyjrhcwRHgjYit6wpk-27" value="" style="endArrow=classic;html=1;rounded=0;fontSize=9;fontColor=#FFFFFF;strokeWidth=1;" edge="1" parent="XkdyjrhcwRHgjYit6wpk-1">
          <mxGeometry width="50" height="50" relative="1" as="geometry">
            <mxPoint x="430" y="340" as="sourcePoint" />
            <mxPoint x="370" y="340" as="targetPoint" />
          </mxGeometry>
        </mxCell>
        <mxCell id="XkdyjrhcwRHgjYit6wpk-28" value="" style="endArrow=classic;html=1;rounded=0;fontSize=9;fontColor=#FFFFFF;strokeWidth=1;" edge="1" parent="XkdyjrhcwRHgjYit6wpk-1">
          <mxGeometry width="50" height="50" relative="1" as="geometry">
            <mxPoint x="610" y="339.9999999999999" as="sourcePoint" />
            <mxPoint x="550" y="339.9999999999999" as="targetPoint" />
          </mxGeometry>
        </mxCell>
        <mxCell id="XkdyjrhcwRHgjYit6wpk-29" value="" style="endArrow=classic;html=1;rounded=0;fontSize=9;fontColor=#FFFFFF;strokeWidth=1;dashed=1;" edge="1" parent="XkdyjrhcwRHgjYit6wpk-1">
          <mxGeometry width="50" height="50" relative="1" as="geometry">
            <mxPoint x="370" y="390" as="sourcePoint" />
            <mxPoint x="430" y="390" as="targetPoint" />
          </mxGeometry>
        </mxCell>
        <mxCell id="XkdyjrhcwRHgjYit6wpk-30" value="" style="endArrow=classic;html=1;rounded=0;fontSize=9;fontColor=#FFFFFF;strokeWidth=1;dashed=1;" edge="1" parent="XkdyjrhcwRHgjYit6wpk-1">
          <mxGeometry width="50" height="50" relative="1" as="geometry">
            <mxPoint x="550" y="390" as="sourcePoint" />
            <mxPoint x="610" y="390" as="targetPoint" />
          </mxGeometry>
        </mxCell>
        <mxCell id="XkdyjrhcwRHgjYit6wpk-31" value="&lt;div style=&quot;font-size: 8px;&quot; align=&quot;left&quot;&gt;Methodenaufrufe&lt;/div&gt;" style="text;html=1;align=left;verticalAlign=middle;resizable=0;points=[];autosize=1;strokeColor=none;fillColor=none;fontSize=8;fontColor=#000000;" vertex="1" parent="XkdyjrhcwRHgjYit6wpk-1">
          <mxGeometry x="370" y="340" width="80" height="20" as="geometry" />
        </mxCell>
        <mxCell id="XkdyjrhcwRHgjYit6wpk-32" value="&lt;div style=&quot;font-size: 8px;&quot; align=&quot;left&quot;&gt;Methodenaufrufe&lt;/div&gt;" style="text;html=1;align=left;verticalAlign=middle;resizable=0;points=[];autosize=1;strokeColor=none;fillColor=none;fontSize=8;fontColor=#000000;" vertex="1" parent="XkdyjrhcwRHgjYit6wpk-1">
          <mxGeometry x="550" y="340" width="80" height="20" as="geometry" />
        </mxCell>
        <mxCell id="XkdyjrhcwRHgjYit6wpk-33" value="Events / Updates" style="text;html=1;align=left;verticalAlign=middle;resizable=0;points=[];autosize=1;strokeColor=none;fillColor=none;fontSize=8;fontColor=#000000;" vertex="1" parent="XkdyjrhcwRHgjYit6wpk-1">
          <mxGeometry x="370" y="390" width="80" height="20" as="geometry" />
        </mxCell>
        <mxCell id="XkdyjrhcwRHgjYit6wpk-34" value="Events / Updates" style="text;html=1;align=left;verticalAlign=middle;resizable=0;points=[];autosize=1;strokeColor=none;fillColor=none;fontSize=8;fontColor=#000000;" vertex="1" parent="XkdyjrhcwRHgjYit6wpk-1">
          <mxGeometry x="550" y="390" width="80" height="20" as="geometry" />
        </mxCell>
        <mxCell id="XkdyjrhcwRHgjYit6wpk-35" value="Entity" style="html=1;fontSize=12;strokeColor=#b85450;fillColor=#CC0000;fontColor=#FFFFFF;fontStyle=1" vertex="1" parent="XkdyjrhcwRHgjYit6wpk-1">
          <mxGeometry x="265" y="350" width="95" height="25" as="geometry" />
        </mxCell>
        <mxCell id="XkdyjrhcwRHgjYit6wpk-36" value="Entity" style="html=1;fontSize=12;strokeColor=#b85450;fillColor=#CC0000;fontColor=#FFFFFF;fontStyle=1" vertex="1" parent="XkdyjrhcwRHgjYit6wpk-1">
          <mxGeometry x="265" y="390" width="95" height="25" as="geometry" />
        </mxCell>
        <mxCell id="XkdyjrhcwRHgjYit6wpk-37" value="" style="endArrow=none;html=1;rounded=0;fontSize=12;fontColor=#000000;strokeWidth=2;strokeColor=#000000;" edge="1" parent="XkdyjrhcwRHgjYit6wpk-1">
          <mxGeometry width="50" height="50" relative="1" as="geometry">
            <mxPoint x="400" y="439.9999999999999" as="sourcePoint" />
            <mxPoint x="400" y="410" as="targetPoint" />
          </mxGeometry>
        </mxCell>
        <mxCell id="XkdyjrhcwRHgjYit6wpk-38" value="" style="endArrow=none;html=1;rounded=0;fontSize=12;fontColor=#000000;strokeWidth=2;strokeColor=#000000;" edge="1" parent="XkdyjrhcwRHgjYit6wpk-1">
          <mxGeometry width="50" height="50" relative="1" as="geometry">
            <mxPoint x="400" y="380" as="sourcePoint" />
            <mxPoint x="400" y="359.9999999999999" as="targetPoint" />
            <Array as="points">
              <mxPoint x="400" y="370" />
            </Array>
          </mxGeometry>
        </mxCell>
        <mxCell id="XkdyjrhcwRHgjYit6wpk-39" value="" style="endArrow=none;html=1;rounded=0;fontSize=12;fontColor=#000000;strokeWidth=2;strokeColor=#000000;" edge="1" parent="XkdyjrhcwRHgjYit6wpk-1">
          <mxGeometry width="50" height="50" relative="1" as="geometry">
            <mxPoint x="580" y="330" as="sourcePoint" />
            <mxPoint x="580" y="300" as="targetPoint" />
          </mxGeometry>
        </mxCell>
        <mxCell id="XkdyjrhcwRHgjYit6wpk-40" value="" style="endArrow=none;html=1;rounded=0;fontSize=12;fontColor=#000000;strokeWidth=2;strokeColor=#000000;" edge="1" parent="XkdyjrhcwRHgjYit6wpk-1">
          <mxGeometry width="50" height="50" relative="1" as="geometry">
            <mxPoint x="580" y="439.9999999999999" as="sourcePoint" />
            <mxPoint x="580" y="410" as="targetPoint" />
          </mxGeometry>
        </mxCell>
        <mxCell id="XkdyjrhcwRHgjYit6wpk-41" value="" style="endArrow=none;html=1;rounded=0;fontSize=12;fontColor=#000000;strokeWidth=2;strokeColor=#000000;" edge="1" parent="XkdyjrhcwRHgjYit6wpk-1">
          <mxGeometry width="50" height="50" relative="1" as="geometry">
            <mxPoint x="580" y="380" as="sourcePoint" />
            <mxPoint x="580" y="359.9999999999999" as="targetPoint" />
            <Array as="points">
              <mxPoint x="580" y="370" />
            </Array>
          </mxGeometry>
        </mxCell>
        <mxCell id="XkdyjrhcwRHgjYit6wpk-42" value="&lt;font style=&quot;font-size: 15px;&quot;&gt;Model&lt;/font&gt;" style="text;html=1;align=left;verticalAlign=middle;resizable=0;points=[];autosize=1;strokeColor=none;fillColor=none;fontSize=15;fontColor=#4C0099;fontStyle=1" vertex="1" parent="XkdyjrhcwRHgjYit6wpk-1">
          <mxGeometry x="40" y="465" width="60" height="20" as="geometry" />
        </mxCell>
        <mxCell id="XkdyjrhcwRHgjYit6wpk-43" value="" style="shape=crossbar;whiteSpace=wrap;html=1;rounded=1;fontSize=9;strokeColor=#4C0099;fillColor=#e1d5e7;" vertex="1" parent="XkdyjrhcwRHgjYit6wpk-1">
          <mxGeometry x="40" y="450" width="540" height="20" as="geometry" />
        </mxCell>
        <mxCell id="XkdyjrhcwRHgjYit6wpk-44" value="" style="shape=crossbar;whiteSpace=wrap;html=1;rounded=1;fontSize=9;strokeColor=#4C0099;fillColor=#e1d5e7;" vertex="1" parent="XkdyjrhcwRHgjYit6wpk-1">
          <mxGeometry x="580" y="450" width="140" height="20" as="geometry" />
        </mxCell>
        <mxCell id="XkdyjrhcwRHgjYit6wpk-45" value="" style="shape=crossbar;whiteSpace=wrap;html=1;rounded=1;fontSize=9;strokeColor=#4C0099;fillColor=#e1d5e7;" vertex="1" parent="XkdyjrhcwRHgjYit6wpk-1">
          <mxGeometry x="820" y="450" width="130" height="20" as="geometry" />
        </mxCell>
        <mxCell id="XkdyjrhcwRHgjYit6wpk-46" value="Controller" style="text;html=1;align=left;verticalAlign=middle;resizable=0;points=[];autosize=1;strokeColor=none;fillColor=none;fontSize=15;fontColor=#4C0099;fontStyle=1" vertex="1" parent="XkdyjrhcwRHgjYit6wpk-1">
          <mxGeometry x="580" y="465" width="90" height="20" as="geometry" />
        </mxCell>
        <mxCell id="XkdyjrhcwRHgjYit6wpk-47" value="View" style="text;html=1;align=left;verticalAlign=middle;resizable=0;points=[];autosize=1;strokeColor=none;fillColor=none;fontSize=15;fontColor=#4C0099;fontStyle=1" vertex="1" parent="XkdyjrhcwRHgjYit6wpk-1">
          <mxGeometry x="820" y="465" width="50" height="20" as="geometry" />
        </mxCell>
        <mxCell id="Vg7hGIf2e_ObcGsyqoQR-0" value="" style="ellipse;shape=cloud;whiteSpace=wrap;html=1;fillColor=#f5f5f5;fontColor=#333333;strokeColor=#666666;" vertex="1" parent="XkdyjrhcwRHgjYit6wpk-1">
          <mxGeometry x="740" y="357.5" width="60" height="25" as="geometry" />
        </mxCell>
        <mxCell id="Vg7hGIf2e_ObcGsyqoQR-8" value="" style="endArrow=classic;html=1;rounded=0;fontSize=9;fontColor=#FFFFFF;strokeWidth=1;" edge="1" parent="XkdyjrhcwRHgjYit6wpk-1">
          <mxGeometry width="50" height="50" relative="1" as="geometry">
            <mxPoint x="830" y="340" as="sourcePoint" />
            <mxPoint x="730" y="340" as="targetPoint" />
          </mxGeometry>
        </mxCell>
        <mxCell id="Vg7hGIf2e_ObcGsyqoQR-9" value="" style="endArrow=classic;html=1;rounded=0;fontSize=9;fontColor=#FFFFFF;strokeWidth=1;dashed=1;" edge="1" parent="XkdyjrhcwRHgjYit6wpk-1">
          <mxGeometry width="50" height="50" relative="1" as="geometry">
            <mxPoint x="730" y="389.5" as="sourcePoint" />
            <mxPoint x="830" y="390" as="targetPoint" />
          </mxGeometry>
        </mxCell>
        <mxCell id="Vg7hGIf2e_ObcGsyqoQR-11" value="REST-Webservice" style="text;html=1;align=left;verticalAlign=middle;resizable=0;points=[];autosize=1;strokeColor=none;fillColor=none;fontSize=10;fontColor=#000000;fontStyle=1" vertex="1" parent="XkdyjrhcwRHgjYit6wpk-1">
          <mxGeometry x="740" y="335" width="110" height="30" as="geometry" />
        </mxCell>
      </root>
    </mxGraphModel>
  </diagram>
</mxfile>
